<svg width="865" height="96" viewBox="0 0 865 96" fill="none" xmlns="http://www.w3.org/2000/svg">
<path d="M1.66365 22.1931C0.856318 22.3788 0.352436 23.1839 0.538197 23.9912C0.723958 24.7986 1.52902 25.3024 2.33635 25.1167L1.66365 22.1931ZM281.285 5.65487L281.128 7.14666L281.285 5.65487ZM529.003 35.1549L528.8 33.6686L529.003 35.1549ZM774.045 28.6549L774.608 27.2644L774.045 28.6549ZM865 95.6549L864.091 78.3582L849.566 87.794L865 95.6549ZM7.20465 24.0271C8.01407 23.8507 8.5272 23.0515 8.35076 22.242C8.17433 21.4326 7.37513 20.9195 6.56571 21.0959L7.20465 24.0271ZM16.4103 19.0463C15.5978 19.2082 15.0705 19.9981 15.2325 20.8106C15.3944 21.623 16.1843 22.1503 16.9968 21.9884L16.4103 19.0463ZM26.7993 20.1081C27.614 19.9576 28.1524 19.1752 28.0019 18.3605C27.8514 17.5459 27.069 17.0075 26.2543 17.158L26.7993 20.1081ZM36.1789 15.3883C35.3625 15.5289 34.8146 16.3047 34.9551 17.1211C35.0957 17.9375 35.8714 18.4854 36.6879 18.3448L36.1789 15.3883ZM46.5435 16.7044C47.3614 16.5728 47.9177 15.8031 47.7861 14.9852C47.6545 14.1673 46.8848 13.6109 46.0669 13.7425L46.5435 16.7044ZM56.0138 12.1949C55.1946 12.3181 54.6304 13.0821 54.7536 13.9013C54.8768 14.7205 55.6408 15.2847 56.46 15.1615L56.0138 12.1949ZM66.3828 13.7191C67.2032 13.6039 67.7748 12.8455 67.6596 12.0251C67.5444 11.2047 66.786 10.633 65.9656 10.7482L66.3828 13.7191ZM75.9065 9.40044C75.0851 9.50788 74.5063 10.2609 74.6137 11.0823C74.7212 11.9037 75.4742 12.4825 76.2956 12.3751L75.9065 9.40044ZM86.2333 11.1223C87.0557 11.0225 87.6415 10.2749 87.5417 9.45248C87.4418 8.63009 86.6943 8.04432 85.8719 8.14413L86.2333 11.1223ZM95.854 6.97919C95.0308 7.07144 94.4382 7.81362 94.5304 8.63689C94.6227 9.46017 95.3648 10.0528 96.1881 9.96054L95.854 6.97919ZM106.155 8.89004C106.979 8.80535 107.579 8.06865 107.494 7.24456C107.409 6.42047 106.673 5.82107 105.849 5.90575L106.155 8.89004ZM115.852 4.92428C115.028 5.00136 114.421 5.73251 114.499 6.55734C114.576 7.38217 115.307 7.98835 116.132 7.91127L115.852 4.92428ZM126.116 7.0251C126.941 6.95571 127.554 6.23024 127.485 5.40473C127.415 4.57921 126.69 3.96625 125.864 4.03564L126.116 7.0251ZM135.883 3.24106C135.057 3.30265 134.437 4.02228 134.498 4.84842C134.56 5.67455 135.28 6.29434 136.106 6.23276L135.883 3.24106ZM146.102 5.5359C146.928 5.48228 147.555 4.76865 147.502 3.94196C147.448 3.11527 146.734 2.48857 145.908 2.54219L146.102 5.5359ZM155.938 1.94104C155.111 1.98651 154.477 2.69393 154.523 3.52111C154.568 4.34829 155.276 4.98199 156.103 4.93652L155.938 1.94104ZM166.108 4.43705C166.936 4.39995 167.577 3.69898 167.54 2.87138C167.502 2.04378 166.801 1.40296 165.974 1.44006L166.108 4.43705ZM176.014 1.04206C175.186 1.07054 174.538 1.76481 174.567 2.59275C174.595 3.42068 175.29 4.06877 176.117 4.04029L176.014 1.04206ZM186.13 3.74945C186.958 3.72987 187.613 3.04261 187.594 2.21442C187.574 1.38622 186.887 0.730709 186.059 0.750287L186.13 3.74945ZM196.107 0.568369C195.278 0.578728 194.615 1.25865 194.626 2.08701C194.636 2.91537 195.316 3.57849 196.144 3.56813L196.107 0.568369ZM206.16 3.50038C206.988 3.4996 207.659 2.82739 207.658 1.99896C207.658 1.17053 206.985 0.499597 206.157 0.500385L206.16 3.50038ZM216.208 0.550854C215.38 0.54168 214.701 1.20577 214.692 2.03415C214.682 2.86253 215.347 3.5415 216.175 3.55067L216.208 0.550854ZM226.188 3.72394C227.017 3.74351 227.704 3.08798 227.723 2.25979C227.743 1.43159 227.087 0.744342 226.259 0.724776L226.188 3.72394ZM236.308 1.02766C235.48 0.997226 234.785 1.64368 234.754 2.47154C234.724 3.29941 235.37 3.9952 236.198 4.02563L236.308 1.02766ZM246.202 4.46174C247.029 4.50355 247.734 3.86673 247.776 3.03936C247.818 2.21199 247.181 1.50738 246.354 1.46556L246.202 4.46174ZM256.393 2.04514C255.566 1.99136 254.852 2.61793 254.799 3.44461C254.745 4.27129 255.371 4.98504 256.198 5.03881L256.393 2.04514ZM266.183 5.76406C267.009 5.83043 267.732 5.21481 267.799 4.38904C267.865 3.56328 267.249 2.84007 266.424 2.77371L266.183 5.76406ZM276.443 3.6593C275.618 3.57966 274.885 4.18357 274.806 5.00816C274.726 5.83275 275.33 6.56577 276.154 6.6454L276.443 3.6593ZM286.014 7.67268C286.838 7.76349 287.579 7.16959 287.67 6.34615C287.76 5.52272 287.167 4.78157 286.343 4.69076L286.014 7.67268ZM295.914 5.7974C295.091 5.6978 294.344 6.28376 294.244 7.10618C294.145 7.9286 294.73 8.67604 295.553 8.77564L295.914 5.7974ZM305.082 9.98435C305.903 10.0933 306.657 9.51597 306.766 8.69474C306.875 7.87352 306.298 7.11942 305.477 7.01043L305.082 9.98435ZM315.101 8.3475C314.281 8.22839 313.52 8.79643 313.4 9.61625C313.281 10.4361 313.849 11.1972 314.669 11.3163L315.101 8.3475ZM324.215 12.7664C325.033 12.8962 325.802 12.3382 325.931 11.52C326.061 10.7018 325.503 9.93329 324.685 9.80346L324.215 12.7664ZM334.238 11.3864C333.421 11.2453 332.645 11.7927 332.504 12.609C332.363 13.4253 332.91 14.2015 333.727 14.3426L334.238 11.3864ZM343.207 16.0516C344.021 16.2044 344.805 15.6683 344.958 14.8541C345.111 14.0399 344.574 13.256 343.76 13.1031L343.207 16.0516ZM353.249 14.9574C352.437 14.7925 351.645 15.3169 351.48 16.1288C351.315 16.9406 351.84 17.7324 352.652 17.8973L353.249 14.9574ZM362.055 19.8795C362.864 20.0563 363.664 19.5435 363.84 18.7342C364.017 17.9248 363.504 17.1254 362.695 16.9486L362.055 19.8795ZM372.158 19.0857C371.351 18.8977 370.545 19.3993 370.357 20.2061C370.169 21.0129 370.67 21.8194 371.477 22.0074L372.158 19.0857ZM380.867 24.2567C381.672 24.4543 382.484 23.9623 382.682 23.1578C382.879 22.3533 382.387 21.5409 381.583 21.3433L380.867 24.2567ZM390.94 23.6857C390.137 23.4815 389.321 23.9669 389.116 24.7698C388.912 25.5726 389.398 26.389 390.201 26.5931L390.94 23.6857ZM399.566 28.9924C400.369 29.1984 401.186 28.715 401.392 27.9126C401.598 27.1103 401.115 26.2927 400.313 26.0867L399.566 28.9924ZM409.649 28.4636C408.845 28.2621 408.031 28.7502 407.829 29.5538C407.628 30.3573 408.116 31.1721 408.919 31.3735L409.649 28.4636ZM418.334 33.6637C419.14 33.8524 419.947 33.3514 420.136 32.5448C420.325 31.7382 419.824 30.9313 419.017 30.7426L418.334 33.6637ZM428.402 32.8155C427.591 32.6483 426.797 33.1705 426.63 33.9819C426.463 34.7933 426.985 35.5866 427.797 35.7538L428.402 32.8155ZM437.34 37.549C438.157 37.687 438.931 37.1367 439.069 36.3198C439.207 35.503 438.657 34.7289 437.84 34.5909L437.34 37.549ZM447.321 35.9921C446.499 35.8884 445.748 36.4707 445.645 37.2926C445.541 38.1145 446.123 38.8649 446.945 38.9685L447.321 35.9921ZM456.638 39.9748C457.464 40.0422 458.188 39.4275 458.255 38.6018C458.322 37.7761 457.708 37.0522 456.882 36.9847L456.638 39.9748ZM466.425 37.559C465.598 37.5265 464.9 38.1712 464.868 38.999C464.835 39.8268 465.48 40.5242 466.308 40.5567L466.425 37.559ZM476.041 40.7465C476.869 40.7469 477.541 40.0756 477.542 39.2472C477.542 38.4188 476.871 37.7469 476.042 37.7465L476.041 40.7465ZM485.643 37.5842C484.815 37.6119 484.166 38.3056 484.194 39.1336C484.222 39.9616 484.916 40.6103 485.744 40.5825L485.643 37.5842ZM495.409 40.1135C496.236 40.0616 496.864 39.3492 496.812 38.5224C496.76 37.6956 496.048 37.0675 495.221 37.1194L495.409 40.1135ZM504.805 36.3937C503.98 36.4663 503.37 37.1941 503.443 38.0194C503.515 38.8446 504.243 39.4548 505.068 39.3822L504.805 36.3937ZM514.708 38.4282C515.532 38.338 516.126 37.5974 516.036 36.7739C515.946 35.9504 515.205 35.3558 514.382 35.446L514.708 38.4282ZM523.942 34.3098C523.121 34.4148 522.539 35.1661 522.644 35.9878C522.75 36.8096 523.501 37.3906 524.323 37.2856L523.942 34.3098ZM534.361 35.9323C535.182 35.8184 535.755 35.0608 535.641 34.2403C535.527 33.4197 534.769 32.8469 533.949 32.9608L534.361 35.9323ZM544.18 31.5147C543.36 31.6326 542.791 32.3929 542.909 33.2129C543.027 34.0329 543.787 34.6021 544.607 34.4842L544.18 31.5147ZM554.845 32.9907C555.664 32.8695 556.23 32.1069 556.109 31.2874C555.988 30.4679 555.225 29.9018 554.406 30.023L554.845 32.9907ZM564.626 28.4942C563.807 28.618 563.243 29.3823 563.367 30.2015C563.491 31.0206 564.255 31.5843 565.074 31.4605L564.626 28.4942ZM575.296 29.9038C576.115 29.7783 576.677 29.0127 576.552 28.1938C576.426 27.375 575.661 26.8129 574.842 26.9384L575.296 29.9038ZM585.054 25.3676C584.235 25.4938 583.674 26.2599 583.8 27.0786C583.926 27.8974 584.692 28.4588 585.511 28.3326L585.054 25.3676ZM595.717 26.7612C596.536 26.6355 597.098 25.8698 596.973 25.051C596.847 24.2322 596.081 23.6703 595.262 23.796L595.717 26.7612ZM605.501 22.2348C604.682 22.3586 604.119 23.123 604.242 23.9421C604.366 24.7612 605.131 25.3249 605.95 25.2011L605.501 22.2348ZM616.179 23.6759C616.999 23.5557 617.566 22.7937 617.446 21.9741C617.325 21.1544 616.563 20.5874 615.744 20.7077L616.179 23.6759ZM625.988 19.2373C625.168 19.3521 624.596 20.1103 624.711 20.9307C624.825 21.7511 625.584 22.3232 626.404 22.2084L625.988 19.2373ZM636.624 20.8241C637.445 20.717 638.024 19.9641 637.917 19.1427C637.81 18.3212 637.057 17.7422 636.235 17.8494L636.624 20.8241ZM646.524 16.5687C645.701 16.6658 645.113 17.4114 645.21 18.2341C645.307 19.0568 646.052 19.6451 646.875 19.5481L646.524 16.5687ZM657.134 18.4175C657.958 18.3335 658.558 17.5973 658.474 16.7732C658.39 15.949 657.654 15.349 656.83 15.4329L657.134 18.4175ZM667.14 14.4816C666.314 14.5492 665.7 15.2735 665.767 16.0991C665.835 16.9248 666.559 17.5392 667.385 17.4715L667.14 14.4816ZM677.678 16.7486C678.505 16.7009 679.136 15.9917 679.089 15.1647C679.041 14.3376 678.332 13.7059 677.505 13.7536L677.678 16.7486ZM687.87 13.3009C687.042 13.3248 686.39 14.0154 686.414 14.8435C686.438 15.6716 687.129 16.3235 687.957 16.2997L687.87 13.3009ZM698.25 16.1731C699.079 16.1774 699.754 15.5092 699.758 14.6808C699.762 13.8524 699.094 13.1774 698.266 13.1732L698.25 16.1731ZM708.655 13.4245C707.827 13.3879 707.127 14.0292 707.09 14.8569C707.054 15.6845 707.695 16.385 708.523 16.4216L708.655 13.4245ZM718.777 17.0969C719.602 17.1699 720.33 16.5601 720.403 15.7349C720.476 14.9097 719.867 14.1816 719.041 14.1086L718.777 17.0969ZM729.384 15.2737C728.563 15.1607 727.806 15.7344 727.693 16.5551C727.58 17.3757 728.154 18.1326 728.975 18.2457L729.384 15.2737ZM739.1 19.9088C739.914 20.0646 740.7 19.5314 740.856 18.7178C741.011 17.9041 740.478 17.1182 739.665 16.9623L739.1 19.9088ZM749.842 19.2024C749.038 19.002 748.224 19.4912 748.024 20.295C747.823 21.0988 748.312 21.9129 749.116 22.1133L749.842 19.2024ZM758.99 24.8722C759.781 25.1176 760.621 24.6751 760.867 23.8838C761.112 23.0925 760.67 22.2522 759.878 22.0068L758.99 24.8722ZM769.742 25.3727C768.966 25.0833 768.102 25.4779 767.812 26.2542C767.523 27.0304 767.918 27.8943 768.694 28.1837L769.742 25.3727ZM777.873 31.8669C778.636 32.191 779.516 31.8357 779.841 31.0733C780.165 30.3109 779.809 29.4301 779.047 29.106L777.873 31.8669ZM787.82 33.0203C787.069 32.6692 786.176 32.993 785.825 33.7433C785.474 34.4937 785.798 35.3866 786.548 35.7376L787.82 33.0203ZM795.072 39.9164C795.809 40.2947 796.713 40.004 797.092 39.267C797.47 38.53 797.179 37.6258 796.442 37.2475L795.072 39.9164ZM804.902 41.7934C804.18 41.3874 803.265 41.6437 802.859 42.3658C802.453 43.088 802.709 44.0025 803.432 44.4085L804.902 41.7934ZM811.609 49.2183C812.315 49.6523 813.239 49.4321 813.673 48.7265C814.107 48.0209 813.887 47.097 813.181 46.663L811.609 49.2183ZM821.258 51.8602C820.57 51.3977 819.638 51.5798 819.176 52.2671C818.713 52.9544 818.895 53.8865 819.583 54.349L821.258 51.8602ZM827.329 59.8061C827.996 60.2978 828.935 60.1559 829.426 59.4892C829.918 58.8224 829.776 57.8833 829.109 57.3916L827.329 59.8061ZM836.725 63.2792C836.081 62.7575 835.137 62.8561 834.615 63.4996C834.093 64.143 834.192 65.0876 834.835 65.6094L836.725 63.2792ZM842.042 71.7515C842.658 72.3047 843.607 72.2533 844.16 71.6366C844.713 71.0199 844.661 70.0716 844.045 69.5184L842.042 71.7515ZM851.035 76.144C850.45 75.557 849.501 75.555 848.914 76.1396C848.327 76.7242 848.325 77.6739 848.909 78.2609L851.035 76.144ZM855.35 85.1656C855.893 85.7911 856.841 85.8579 857.466 85.3147C858.092 84.7716 858.158 83.8242 857.615 83.1986L855.35 85.1656ZM863.629 90.793C863.15 90.1167 862.214 89.9565 861.538 90.4351C860.862 90.9136 860.702 91.8497 861.18 92.526L863.629 90.793ZM2.33635 25.1167C3.87901 24.7617 5.50278 24.3981 7.20465 24.0271L6.56571 21.0959C4.85327 21.4692 3.21821 21.8354 1.66365 22.1931L2.33635 25.1167ZM16.9968 21.9884C20.0896 21.3718 23.3611 20.7433 26.7993 20.1081L26.2543 17.158C22.8028 17.7956 19.5175 18.4268 16.4103 19.0463L16.9968 21.9884ZM36.6879 18.3448C39.863 17.7982 43.1506 17.2504 46.5435 16.7044L46.0669 13.7425C42.6633 14.2902 39.3649 14.8399 36.1789 15.3883L36.6879 18.3448ZM56.46 15.1615C59.6896 14.6758 62.999 14.1942 66.3828 13.7191L65.9656 10.7482C62.5722 11.2247 59.2531 11.7077 56.0138 12.1949L56.46 15.1615ZM76.2956 12.3751C79.5504 11.9494 82.8644 11.5312 86.2333 11.1223L85.8719 8.14413C82.4936 8.55415 79.1704 8.97354 75.9065 9.40044L76.2956 12.3751ZM96.1881 9.96054C99.4663 9.59322 102.79 9.23586 106.155 8.89004L105.849 5.90575C102.474 6.25253 99.1412 6.61087 95.854 6.97919L96.1881 9.96054ZM116.132 7.91127C119.426 7.60346 122.755 7.30761 126.116 7.0251L125.864 4.03564C122.494 4.31895 119.156 4.61562 115.852 4.92428L116.132 7.91127ZM136.106 6.23276C139.412 5.98634 142.745 5.75363 146.102 5.5359L145.908 2.54219C142.541 2.76056 139.198 2.99393 135.883 3.24106L136.106 6.23276ZM156.103 4.93652C159.418 4.75427 162.754 4.58739 166.108 4.43705L165.974 1.44006C162.61 1.59086 159.264 1.75824 155.938 1.94104L156.103 4.93652ZM176.117 4.04029C179.441 3.92596 182.779 3.82865 186.13 3.74945L186.059 0.750287C182.697 0.829748 179.348 0.927372 176.014 1.04206L176.117 4.04029ZM196.144 3.56813C199.474 3.5265 202.813 3.50356 206.16 3.50038L206.157 0.500385C202.799 0.503575 199.448 0.526588 196.107 0.568369L196.144 3.56813ZM216.175 3.55067C219.509 3.58759 222.847 3.64501 226.188 3.72394L226.259 0.724776C222.905 0.645543 219.554 0.587913 216.208 0.550854L216.175 3.55067ZM236.198 4.02563C239.533 4.14824 242.869 4.29327 246.202 4.46174L246.354 1.46556C243.006 1.29638 239.657 1.15076 236.308 1.02766L236.198 4.02563ZM256.198 5.03881C259.532 5.25567 262.861 5.49708 266.183 5.76406L266.424 2.77371C263.086 2.50547 259.741 2.26296 256.393 2.04514L256.198 5.03881ZM276.154 6.6454C277.815 6.80574 279.473 6.97279 281.128 7.14666L281.441 4.16308C279.778 3.98831 278.111 3.82043 276.443 3.6593L276.154 6.6454ZM281.128 7.14666C282.776 7.31983 284.405 7.4952 286.014 7.67268L286.343 4.69076C284.729 4.51271 283.095 4.33678 281.441 4.16308L281.128 7.14666ZM295.553 8.77564C298.812 9.1703 301.987 9.57353 305.082 9.98435L305.477 7.01043C302.37 6.5981 299.184 6.19342 295.914 5.7974L295.553 8.77564ZM314.669 11.3163C317.943 11.792 321.123 12.2758 324.215 12.7664L324.685 9.80346C321.58 9.31084 318.388 8.82505 315.101 8.3475L314.669 11.3163ZM333.727 14.3426C336.987 14.9062 340.144 15.4765 343.207 16.0516L343.76 13.1031C340.684 12.5254 337.512 11.9526 334.238 11.3864L333.727 14.3426ZM352.652 17.8973C355.892 18.5556 359.023 19.2172 362.055 19.8795L362.695 16.9486C359.649 16.2833 356.505 15.6187 353.249 14.9574L352.652 17.8973ZM371.477 22.0074C374.713 22.7616 377.838 23.5127 380.867 24.2567L381.583 21.3433C378.543 20.5969 375.407 19.8429 372.158 19.0857L371.477 22.0074ZM390.201 26.5931C393.411 27.4095 396.524 28.2109 399.566 28.9924L400.313 26.0867C397.272 25.3059 394.155 24.5032 390.94 23.6857L390.201 26.5931ZM408.919 31.3735C412.101 32.1712 415.229 32.9373 418.334 33.6637L419.017 30.7426C415.932 30.0209 412.82 29.2588 409.649 28.4636L408.919 31.3735ZM427.797 35.7538C430.956 36.4049 434.126 37.0061 437.34 37.549L437.84 34.5909C434.665 34.0547 431.531 33.4602 428.402 32.8155L427.797 35.7538ZM446.945 38.9685C450.098 39.3661 453.32 39.7039 456.638 39.9748L456.882 36.9847C453.609 36.7175 450.431 36.3843 447.321 35.9921L446.945 38.9685ZM466.308 40.5567C469.448 40.6799 472.685 40.7448 476.041 40.7465L476.042 37.7465C472.725 37.7448 469.526 37.6807 466.425 37.559L466.308 40.5567ZM485.744 40.5825C488.858 40.4782 492.076 40.3229 495.409 40.1135L495.221 37.1194C491.915 37.327 488.727 37.4809 485.643 37.5842L485.744 40.5825ZM505.068 39.3822C508.181 39.1085 511.391 38.7911 514.708 38.4282L514.382 35.446C511.085 35.8067 507.896 36.1219 504.805 36.3937L505.068 39.3822ZM524.323 37.2856C525.926 37.0807 527.553 36.866 529.205 36.6412L528.8 33.6686C527.156 33.8923 525.537 34.106 523.942 34.3098L524.323 37.2856ZM529.205 36.6412C530.934 36.4058 532.653 36.1694 534.361 35.9323L533.949 32.9608C532.243 33.1976 530.527 33.4336 528.8 33.6686L529.205 36.6412ZM544.607 34.4842C548.063 33.9875 551.475 33.4891 554.845 32.9907L554.406 30.023C551.039 30.5208 547.632 31.0186 544.18 31.5147L544.607 34.4842ZM565.074 31.4605C568.526 30.9389 571.933 30.4193 575.296 29.9038L574.842 26.9384C571.48 27.4537 568.075 27.9729 564.626 28.4942L565.074 31.4605ZM585.511 28.3326C588.958 27.8012 592.36 27.2767 595.717 26.7612L595.262 23.796C591.903 24.3116 588.501 24.8363 585.054 25.3676L585.511 28.3326ZM605.95 25.2011C609.405 24.6788 612.814 24.1695 616.179 23.6759L615.744 20.7077C612.374 21.2021 608.96 21.712 605.501 22.2348L605.95 25.2011ZM626.404 22.2084C629.856 21.7253 633.262 21.2628 636.624 20.8241L636.235 17.8494C632.863 18.2894 629.448 18.7531 625.988 19.2373L626.404 22.2084ZM646.875 19.5481C650.339 19.1396 653.757 18.7615 657.134 18.4175L656.83 15.4329C653.436 15.7787 650.002 16.1586 646.524 16.5687L646.875 19.5481ZM667.385 17.4715C670.858 17.1868 674.287 16.9443 677.678 16.7486L677.505 13.7536C674.088 13.9508 670.635 14.195 667.14 14.4816L667.385 17.4715ZM687.957 16.2997C691.425 16.1997 694.855 16.1558 698.25 16.1731L698.266 13.1732C694.834 13.1557 691.37 13.2 687.87 13.3009L687.957 16.2997ZM708.523 16.4216C711.971 16.5738 715.387 16.7971 718.777 17.0969L719.041 14.1086C715.605 13.8046 712.145 13.5786 708.655 13.4245L708.523 16.4216ZM728.975 18.2457C732.37 18.7132 735.743 19.2656 739.1 19.9088L739.665 16.9623C736.254 16.309 732.829 15.7482 729.384 15.2737L728.975 18.2457ZM749.116 22.1133C752.416 22.936 755.705 23.8538 758.99 24.8722L759.878 22.0068C756.54 20.9715 753.196 20.0386 749.842 19.2024L749.116 22.1133ZM768.694 28.1837C770.29 28.7788 771.886 29.3991 773.483 30.0453L774.608 27.2644C772.986 26.6078 771.364 25.9775 769.742 25.3727L768.694 28.1837ZM773.483 30.0453C774.965 30.6454 776.429 31.2527 777.873 31.8669L779.047 29.106C777.586 28.4851 776.107 27.871 774.608 27.2644L773.483 30.0453ZM786.548 35.7376C789.476 37.1071 792.317 38.5019 795.072 39.9164L796.442 37.2475C793.654 35.8163 790.78 34.4053 787.82 33.0203L786.548 35.7376ZM803.432 44.4085C806.259 45.9979 808.984 47.6037 811.609 49.2183L813.181 46.663C810.523 45.0279 807.763 43.4022 804.902 41.7934L803.432 44.4085ZM819.583 54.349C822.289 56.1706 824.871 57.9932 827.329 59.8061L829.109 57.3916C826.617 55.5534 824 53.706 821.258 51.8602L819.583 54.349ZM834.835 65.6094C837.403 67.6918 839.805 69.7449 842.042 71.7515L844.045 69.5184C841.771 67.4784 839.332 65.3929 836.725 63.2792L834.835 65.6094ZM848.909 78.2609C851.323 80.6845 853.468 82.9984 855.35 85.1656L857.615 83.1986C855.687 80.9779 853.495 78.6141 851.035 76.144L848.909 78.2609Z" fill="#FAFAFA"/>
</svg>
