<svg width="63" height="58" viewBox="0 0 63 58" fill="none" xmlns="http://www.w3.org/2000/svg">
<path d="M40.9023 27.9789C36.3393 27.9789 34.0579 25.516 34.0579 20.5901V7.3888C34.0579 2.46293 36.3393 0 40.9023 0H56.1556C60.7185 0 63 2.46293 63 7.3888V20.5901C63 29.0626 62.4459 36.1887 61.3378 41.9684C60.2296 47.6824 57.3941 52.3127 52.8311 55.8594C49.5067 58.4208 46.8993 58.6835 45.0089 56.6475L41.2934 52.6083C38.9467 50.1125 39.3052 47.6496 42.3689 45.2195C44.4549 43.5775 45.8563 41.443 46.5734 38.8158C47.2904 36.1887 47.6489 32.5764 47.6489 27.9789H40.9023ZM6.84442 27.9789C2.28148 27.9789 0 25.516 0 20.5901V7.3888C0 2.46293 2.28148 0 6.84442 0H22.0977C26.6607 0 28.9421 2.46293 28.9421 7.3888V20.5901C28.9421 29.0626 28.3881 36.1887 27.2799 41.9684C26.1718 47.6824 23.3362 52.3127 18.7733 55.8594C15.4488 58.4208 12.8414 58.6835 10.9511 56.6475L7.23553 52.6083C4.88888 50.1125 5.24739 47.6496 8.31109 45.2195C10.397 43.5775 11.7985 41.443 12.5155 38.8158C13.2326 36.1887 13.5911 32.5764 13.5911 27.9789H6.84442Z" fill="#404040"/>
</svg>
